# xmcd
#
# Track frame offsets: 
#        150
#        15700
#        30087
#        43594
#        60629
#        76425
#        89849
#        110129
#        127473
#        143605
#        159692
#        183403
#        200127
#        226764
#        237608
#
# Disc length: 3379 seconds
#
# Revision: 0
# Processed by: cddbd v1.5.2PL0 Copyright (c) Steve Scherf et al.
# Submitted via: ExactAudioCopy v1.0b4
#
DISCID=d50d310f
DTITLE=Richie Milton and the Lowdown - Prekatrina
DYEAR=2016
DGENRE=Blues
TTITLE0=Prekatrina
TTITLE1=Back to Rock and Roll
TTITLE2=Celebration Day
TTITLE3=Drowning Man
TTITLE4=Things Ain't Been the Same
TTITLE5=More Than You'll Ever Know (Instumental)
TTITLE6=Heavenly Moon
TTITLE7=Population Boom
TTITLE8=How Come Baby
TTITLE9=I See Love
TTITLE10=Ghosts on Rampart Street
TTITLE11=Find Another Man
TTITLE12=I Wonder Where She Gone
TTITLE13=Keep My Engine Clean
TTITLE14=Things (Late Night) (Instumental)
EXTD=
EXTT0=
EXTT1=
EXTT2=
EXTT3=
EXTT4=
EXTT5=
EXTT6=
EXTT7=
EXTT8=
EXTT9=
EXTT10=
EXTT11=
EXTT12=
EXTT13=
EXTT14=
PLAYORDER=
